<?xml version="1.0" standalone="no"?>
<!DOCTYPE svg PUBLIC "-//W3C//DTD SVG 20010904//EN"
 "http://www.w3.org/TR/2001/REC-SVG-20010904/DTD/svg10.dtd">
<svg version="1.0" xmlns="http://www.w3.org/2000/svg"
 width="128.000000pt" height="128.000000pt" viewBox="0 0 128.000000 128.000000"
 preserveAspectRatio="xMidYMid meet">
<metadata>
Created by potrace 1.11, written by Peter Selinger 2001-2013
</metadata>
<g transform="translate(0.000000,128.000000) scale(0.100000,-0.100000)"
fill="#000000" stroke="none">
<path d="M720 1265 c-30 -8 -154 -37 -275 -65 -121 -27 -229 -53 -241 -56 -11
-3 -28 -18 -37 -34 -15 -25 -17 -80 -17 -552 0 -287 4 -528 8 -534 14 -22 50
-25 114 -10 174 41 236 55 263 60 17 3 83 19 149 35 156 38 160 42 166 172 5
98 6 101 23 82 13 -15 16 -31 13 -59 -13 -104 54 -193 157 -207 144 -19 247
129 181 260 -34 69 -82 97 -164 97 l-65 0 -73 72 -73 71 -1 319 c0 395 5 382
-128 349z m393 -883 c5 -7 20 -17 33 -22 14 -6 24 -18 24 -30 0 -11 6 -29 12
-40 10 -15 10 -22 0 -32 -6 -6 -12 -25 -12 -40 0 -21 -5 -28 -20 -28 -11 0
-25 -8 -31 -17 -15 -25 -80 -22 -114 6 -15 11 -32 21 -37 21 -5 0 -8 6 -5 13
2 6 -1 23 -8 37 -11 21 -11 30 0 50 7 13 11 30 8 37 -3 7 6 15 21 19 14 3 28
14 31 23 4 13 16 17 48 17 23 -1 46 -7 50 -14z"/>
</g>
</svg>
